<?xml version="1.0" encoding="UTF-8" standalone="no"?><svg xmlns="http://www.w3.org/2000/svg" xmlns:xlink="http://www.w3.org/1999/xlink" contentScriptType="application/ecmascript" contentStyleType="text/css" height="539px" preserveAspectRatio="none" style="width:425px;height:539px;" version="1.1" viewBox="0 0 425 539" width="425px" zoomAndPan="magnify"><defs><filter height="300%" id="f1i7sp9xqrkyo6" width="300%" x="-1" y="-1"><feGaussianBlur result="blurOut" stdDeviation="2.0"/><feColorMatrix in="blurOut" result="blurOut2" type="matrix" values="0 0 0 0 0 0 0 0 0 0 0 0 0 0 0 0 0 0 .4 0"/><feOffset dx="4.0" dy="4.0" in="blurOut2" result="blurOut3"/><feBlend in="SourceGraphic" in2="blurOut3" mode="normal"/></filter></defs><g><ellipse cx="211" cy="20" fill="#000000" filter="url(#f1i7sp9xqrkyo6)" rx="10" ry="10" style="stroke: none; stroke-width: 1.0;"/><rect fill="#FEFECE" filter="url(#f1i7sp9xqrkyo6)" height="33.9688" rx="12.5" ry="12.5" style="stroke: #A80036; stroke-width: 1.5;" width="111" x="155.5" y="50"/><text fill="#000000" font-family="sans-serif" font-size="12" lengthAdjust="spacingAndGlyphs" textLength="91" x="165.5" y="71.1387">POST an Order</text><path d="M272.5,100.8203 L272.5,116.9531 L252.5,120.9531 L272.5,124.9531 L272.5,141.0859 A0,0 0 0 0 272.5,141.0859 L413.5,141.0859 A0,0 0 0 0 413.5,141.0859 L413.5,110.8203 L403.5,100.8203 L272.5,100.8203 A0,0 0 0 0 272.5,100.8203 " fill="#FBFB77" filter="url(#f1i7sp9xqrkyo6)" style="stroke: #A80036; stroke-width: 1.0;"/><path d="M403.5,100.8203 L403.5,110.8203 L413.5,110.8203 L403.5,100.8203 " fill="#FBFB77" style="stroke: #A80036; stroke-width: 1.0;"/><text fill="#000000" font-family="sans-serif" font-size="13" lengthAdjust="spacingAndGlyphs" textLength="120" x="278.5" y="117.8872">Using the returned</text><text fill="#000000" font-family="sans-serif" font-size="13" font-weight="bold" lengthAdjust="spacingAndGlyphs" textLength="78" x="278.5" y="133.02">request_id</text><rect fill="#FEFECE" filter="url(#f1i7sp9xqrkyo6)" height="33.9688" rx="12.5" ry="12.5" style="stroke: #A80036; stroke-width: 1.5;" width="83" x="169.5" y="103.9688"/><text fill="#000000" font-family="sans-serif" font-size="12" lengthAdjust="spacingAndGlyphs" textLength="63" x="179.5" y="125.1074">GET Order</text><rect fill="#FEFECE" filter="url(#f1i7sp9xqrkyo6)" height="33.9688" rx="12.5" ry="12.5" style="stroke: #A80036; stroke-width: 1.5;" width="47" x="187.5" y="247.1094"/><text fill="#000000" font-family="sans-serif" font-size="12" lengthAdjust="spacingAndGlyphs" textLength="27" x="197.5" y="268.248">Wait</text><rect fill="#FEFECE" filter="url(#f1i7sp9xqrkyo6)" height="33.9688" rx="12.5" ry="12.5" style="stroke: #A80036; stroke-width: 1.5;" width="83" x="169.5" y="301.0781"/><text fill="#000000" font-family="sans-serif" font-size="12" lengthAdjust="spacingAndGlyphs" textLength="63" x="179.5" y="322.2168">GET Order</text><polygon fill="#FEFECE" filter="url(#f1i7sp9xqrkyo6)" points="122,165.7896,300,165.7896,312,177.7896,300,189.7896,122,189.7896,110,177.7896,122,165.7896" style="stroke: #A80036; stroke-width: 1.5;"/><text fill="#000000" font-family="sans-serif" font-size="11" lengthAdjust="spacingAndGlyphs" textLength="0" x="219" y="200"/><text fill="#000000" font-family="sans-serif" font-size="11" lengthAdjust="spacingAndGlyphs" textLength="89" x="215" y="212.8047">Yes: Request is</text><text fill="#000000" font-family="sans-serif" font-size="11" lengthAdjust="spacingAndGlyphs" textLength="88" x="215" y="225.6094">Still Processing</text><text fill="#000000" font-family="sans-serif" font-size="11" lengthAdjust="spacingAndGlyphs" textLength="10" x="122" y="181.5977">Is</text><text fill="#000000" font-family="sans-serif" font-size="11" font-weight="bold" lengthAdjust="spacingAndGlyphs" textLength="31" x="136" y="181.5977">code</text><text fill="#000000" font-family="sans-serif" font-size="11" lengthAdjust="spacingAndGlyphs" textLength="129" x="171" y="181.5977">"request_processing"?</text><text fill="#000000" font-family="sans-serif" font-size="11" lengthAdjust="spacingAndGlyphs" textLength="83" x="10" y="162.3906">No: Request is</text><text fill="#000000" font-family="sans-serif" font-size="11" lengthAdjust="spacingAndGlyphs" textLength="96" x="10" y="175.1953">Done Processing</text><polygon fill="#FEFECE" filter="url(#f1i7sp9xqrkyo6)" points="162.5,377.0469,259.5,377.0469,271.5,389.0469,259.5,401.0469,162.5,401.0469,150.5,389.0469,162.5,377.0469" style="stroke: #A80036; stroke-width: 1.5;"/><text fill="#000000" font-family="sans-serif" font-size="11" lengthAdjust="spacingAndGlyphs" textLength="10" x="162.5" y="392.855">Is</text><text fill="#000000" font-family="sans-serif" font-size="11" font-weight="bold" lengthAdjust="spacingAndGlyphs" textLength="34" x="176.5" y="392.855">_type</text><text fill="#000000" font-family="sans-serif" font-size="11" lengthAdjust="spacingAndGlyphs" textLength="45" x="214.5" y="392.855">"error"?</text><text fill="#000000" font-family="sans-serif" font-size="11" lengthAdjust="spacingAndGlyphs" textLength="21" x="129.5" y="386.4526">Yes</text><text fill="#000000" font-family="sans-serif" font-size="11" lengthAdjust="spacingAndGlyphs" textLength="15" x="271.5" y="386.4526">No</text><rect fill="#FEFECE" filter="url(#f1i7sp9xqrkyo6)" height="47.9375" rx="12.5" ry="12.5" style="stroke: #A80036; stroke-width: 1.5;" width="181" x="26.75" y="411.0469"/><text fill="#000000" font-family="sans-serif" font-size="12" lengthAdjust="spacingAndGlyphs" textLength="38" x="36.75" y="432.1855">Check</text><text fill="#000000" font-family="sans-serif" font-size="12" font-weight="bold" lengthAdjust="spacingAndGlyphs" textLength="34" x="78.75" y="432.1855">code</text><text fill="#000000" font-family="sans-serif" font-size="12" lengthAdjust="spacingAndGlyphs" textLength="81" x="116.75" y="432.1855">to determine</text><text fill="#000000" font-family="sans-serif" font-size="12" lengthAdjust="spacingAndGlyphs" textLength="124" x="36.75" y="446.1543">why the order failed</text><rect fill="#FEFECE" filter="url(#f1i7sp9xqrkyo6)" height="47.9375" rx="12.5" ry="12.5" style="stroke: #A80036; stroke-width: 1.5;" width="154" x="227.75" y="411.0469"/><text fill="#000000" font-family="sans-serif" font-size="12" lengthAdjust="spacingAndGlyphs" textLength="134" x="237.75" y="432.1855">Check response JSON</text><text fill="#000000" font-family="sans-serif" font-size="12" lengthAdjust="spacingAndGlyphs" textLength="101" x="237.75" y="446.1543">for order details</text><polygon fill="#FEFECE" filter="url(#f1i7sp9xqrkyo6)" points="211,464.9844,223,476.9844,211,488.9844,199,476.9844,211,464.9844" style="stroke: #A80036; stroke-width: 1.5;"/><ellipse cx="211" cy="518.9844" fill="none" filter="url(#f1i7sp9xqrkyo6)" rx="10" ry="10" style="stroke: #000000; stroke-width: 1.0;"/><ellipse cx="211.5" cy="519.4844" fill="#000000" filter="url(#f1i7sp9xqrkyo6)" rx="6" ry="6" style="stroke: none; stroke-width: 1.0;"/><line style="stroke: #A80036; stroke-width: 1.5;" x1="211" x2="211" y1="30" y2="50"/><polygon fill="#A80036" points="207,40,211,50,215,40,211,44" style="stroke: #A80036; stroke-width: 1.0;"/><line style="stroke: #A80036; stroke-width: 1.5;" x1="211" x2="211" y1="83.9688" y2="103.9688"/><polygon fill="#A80036" points="207,93.9688,211,103.9688,215,93.9688,211,97.9688" style="stroke: #A80036; stroke-width: 1.0;"/><line style="stroke: #A80036; stroke-width: 1.5;" x1="211" x2="211" y1="281.0781" y2="301.0781"/><polygon fill="#A80036" points="207,291.0781,211,301.0781,215,291.0781,211,295.0781" style="stroke: #A80036; stroke-width: 1.0;"/><line style="stroke: #A80036; stroke-width: 1.5;" x1="211" x2="211" y1="189.7896" y2="247.1094"/><polygon fill="#A80036" points="207,237.1094,211,247.1094,215,237.1094,211,241.1094" style="stroke: #A80036; stroke-width: 1.0;"/><line style="stroke: #A80036; stroke-width: 1.5;" x1="211" x2="211" y1="335.0469" y2="345.0469"/><line style="stroke: #A80036; stroke-width: 1.5;" x1="211" x2="324" y1="345.0469" y2="345.0469"/><polygon fill="#A80036" points="320,277.3711,324,267.3711,328,277.3711,324,273.3711" style="stroke: #A80036; stroke-width: 1.5;"/><line style="stroke: #A80036; stroke-width: 1.5;" x1="324" x2="324" y1="177.7896" y2="345.0469"/><line style="stroke: #A80036; stroke-width: 1.5;" x1="324" x2="312" y1="177.7896" y2="177.7896"/><polygon fill="#A80036" points="322,173.7896,312,177.7896,322,181.7896,318,177.7896" style="stroke: #A80036; stroke-width: 1.0;"/><line style="stroke: #A80036; stroke-width: 1.5;" x1="110" x2="98" y1="177.7896" y2="177.7896"/><polygon fill="#A80036" points="94,263.3711,98,273.3711,102,263.3711,98,267.3711" style="stroke: #A80036; stroke-width: 1.5;"/><line style="stroke: #A80036; stroke-width: 1.5;" x1="98" x2="98" y1="177.7896" y2="357.0469"/><line style="stroke: #A80036; stroke-width: 1.5;" x1="98" x2="211" y1="357.0469" y2="357.0469"/><line style="stroke: #A80036; stroke-width: 1.5;" x1="211" x2="211" y1="357.0469" y2="377.0469"/><polygon fill="#A80036" points="207,367.0469,211,377.0469,215,367.0469,211,371.0469" style="stroke: #A80036; stroke-width: 1.0;"/><line style="stroke: #A80036; stroke-width: 1.5;" x1="211" x2="211" y1="137.9375" y2="165.7896"/><polygon fill="#A80036" points="207,155.7896,211,165.7896,215,155.7896,211,159.7896" style="stroke: #A80036; stroke-width: 1.0;"/><line style="stroke: #A80036; stroke-width: 1.5;" x1="150.5" x2="117.25" y1="389.0469" y2="389.0469"/><line style="stroke: #A80036; stroke-width: 1.5;" x1="117.25" x2="117.25" y1="389.0469" y2="411.0469"/><polygon fill="#A80036" points="113.25,401.0469,117.25,411.0469,121.25,401.0469,117.25,405.0469" style="stroke: #A80036; stroke-width: 1.0;"/><line style="stroke: #A80036; stroke-width: 1.5;" x1="271.5" x2="304.75" y1="389.0469" y2="389.0469"/><line style="stroke: #A80036; stroke-width: 1.5;" x1="304.75" x2="304.75" y1="389.0469" y2="411.0469"/><polygon fill="#A80036" points="300.75,401.0469,304.75,411.0469,308.75,401.0469,304.75,405.0469" style="stroke: #A80036; stroke-width: 1.0;"/><line style="stroke: #A80036; stroke-width: 1.5;" x1="117.25" x2="117.25" y1="458.9844" y2="476.9844"/><line style="stroke: #A80036; stroke-width: 1.5;" x1="117.25" x2="199" y1="476.9844" y2="476.9844"/><polygon fill="#A80036" points="189,472.9844,199,476.9844,189,480.9844,193,476.9844" style="stroke: #A80036; stroke-width: 1.0;"/><line style="stroke: #A80036; stroke-width: 1.5;" x1="304.75" x2="304.75" y1="458.9844" y2="476.9844"/><line style="stroke: #A80036; stroke-width: 1.5;" x1="304.75" x2="223" y1="476.9844" y2="476.9844"/><polygon fill="#A80036" points="233,472.9844,223,476.9844,233,480.9844,229,476.9844" style="stroke: #A80036; stroke-width: 1.0;"/><line style="stroke: #A80036; stroke-width: 1.5;" x1="211" x2="211" y1="488.9844" y2="508.9844"/><polygon fill="#A80036" points="207,498.9844,211,508.9844,215,498.9844,211,502.9844" style="stroke: #A80036; stroke-width: 1.0;"/><!--
@startuml
start

:POST an Order;
:GET Order;
note right: Using the returned\n**request_id**
while (Is **code** "request_processing"?) is (\nYes: Request is\nStill Processing)
   :Wait;
   :GET Order;
endwhile (No: Request is\nDone Processing )

if (Is **_type** "error"?) then (Yes)
   :Check **code** to determine\nwhy the order failed;
else (No)
   :Check response JSON\nfor order details;
endif

stop
@enduml

PlantUML version 1.2018.14(Fri Dec 21 08:33:16 PST 2018)
(GPL source distribution)
Java Runtime: OpenJDK Runtime Environment
JVM: OpenJDK 64-Bit Server VM
Java Version: 1.8.0_192-b26
Operating System: Linux
OS Version: 4.19.4-arch1-1-ARCH
Default Encoding: UTF-8
Language: en
Country: US
--></g></svg>